PathFileType	4	(X/Y/Z)	C:/Users/opensim2020/Desktop/walking_exp_matlab/subject06_walking17_straight_01.trc																																																																																																																																					
DataRate	CameraRate	NumFrames	NumMarkers	Units	OrigDataRate	OrigDataStartFrame	OrigNumFrames																																																																																																																																	
100	100	5	45	mm	100	1133	305																																																																																																																																	
Frame#	Time	LFHD			RFHD			LBHD			RBHD			C7			T10			CLAV			STRN			RBAK			LSHO			LUPA			LELB			LFRM			LWRA			LWRB			LFIN			RSHO			RUPA			RELB			RFRM			RWRA			RWRB			RFIN			LASI			RASI			LPSI			RPSI			LTHI			LKNE			LTIB			LANK			LHEE			LTOE			RTHI			RKNE			RTIB			RANK			RHEE			RTOE			*39			*40			*41			*42			*43			*44		
		X1	Y1	Z1	X2	Y2	Z2	X3	Y3	Z3	X4	Y4	Z4	X5	Y5	Z5	X6	Y6	Z6	X7	Y7	Z7	X8	Y8	Z8	X9	Y9	Z9	X10	Y10	Z10	X11	Y11	Z11	X12	Y12	Z12	X13	Y13	Z13	X14	Y14	Z14	X15	Y15	Z15	X16	Y16	Z16	X17	Y17	Z17	X18	Y18	Z18	X19	Y19	Z19	X20	Y20	Z20	X21	Y21	Z21	X22	Y22	Z22	X23	Y23	Z23	X24	Y24	Z24	X25	Y25	Z25	X26	Y26	Z26	X27	Y27	Z27	X28	Y28	Z28	X29	Y29	Z29	X30	Y30	Z30	X31	Y31	Z31	X32	Y32	Z32	X33	Y33	Z33	X34	Y34	Z34	X35	Y35	Z35	X36	Y36	Z36	X37	Y37	Z37	X38	Y38	Z38	X39	Y39	Z39	X40	Y40	Z40	X41	Y41	Z41	X42	Y42	Z42	X43	Y43	Z43	X44	Y44	Z44	X45	Y45	Z45
																																																																																																																																								
153	1.52	-13.31173	1663.86084	-1030.33435	-21.85657	1646.62561	-899.54968	-144.23103	1606.75854	-1042.75342	-151.48769	1594.69092	-914.15265	-148.33128	1449.74377	-985.30853	-191.89638	1121.81152	-980.24994	-40.3049	1369.03381	-988.48016	-6.20056	1191.99573	-996.69244	-222.77132	1280.44446	-902.46106	-99.65897	1404.27002	-1148.44531	-127.28426	1205.58813	-1224.82983	-144.60109	1095.14905	-1241.15601	-127.63266	946.83057	-1271.08093	-68.25539	829.45538	-1236.11951	-130.3175	827.57593	-1272.30322	-90.17405	746.38861	-1279.10449	-78.10109	1402.25977	-825.8006	-104.48096	1202.37354	-737.43036	-88.57482	1081.49011	-725.3175	-65.53849	963.30615	-708.7915	-0.78181	827.22015	-742.71967	-52.17022	826.17438	-699.52057	-10.94282	752.60046	-698.70313	-16.53689	958.15125	-1088.85413	-24.80283	958.24323	-869.47528	-175.25113	988.50726	-1068.69153	-175.41617	993.37653	-899.1958	-34.04586	649.62689	-1161.23474	14.08536	498.16235	-1131.81824	47.55874	244.0592	-1133.36536	99.90174	77.65414	-1098.42969	67.89208	52.84187	-1049.93176	246.60257	81.18774	-1098.01685	-128.63481	629.82361	-831.89795	-150.4064	505.64804	-854.75299	-239.6386	252.55664	-869.96228	-272.46448	70.47973	-926.44427	-312.66821	49.26721	-973.4881	-119.91586	30.2348	-920.43921	-117.98705	1697.01147	-976.79938	NaN	NaN	NaN	NaN	NaN	NaN	NaN	NaN	NaN	NaN	NaN	NaN	NaN	NaN	NaN
154	1.53	-7.84308	1663.33862	-1031.38391	-16.32621	1646.1521	-900.52423	-138.66547	1605.96729	-1043.74634	-145.86317	1594.00623	-915.10175	-142.39526	1449.03699	-986.18335	-186.04048	1121.16687	-981.03638	-34.41714	1368.41882	-989.2486	-0.36671	1191.34973	-997.30414	-216.95294	1279.89978	-903.41797	-93.71789	1403.57874	-1149.3053	-122.49605	1205.07922	-1225.15417	-140.70705	1094.74475	-1241.50159	-125.40485	946.24536	-1271.28247	-66.50386	828.49109	-1236.3512	-129.02478	827.10406	-1272.27893	-89.32194	745.43646	-1278.7981	-72.41307	1401.76404	-826.62	-99.092	1201.89673	-738.23975	-83.24594	1080.97742	-726.13129	-60.29639	962.8031	-709.58521	4.41729	826.65009	-743.42328	-47.12524	825.85583	-700.08191	-5.78192	752.02991	-699.47284	-10.29326	957.6225	-1089.2074	-19.18576	957.54309	-869.9718	-169.06778	987.92676	-1069.50769	-169.88676	992.69781	-899.98181	-27.49675	649.40472	-1161.33154	20.06729	497.78613	-1132.06311	54.86695	243.86972	-1134.06421	107.6733	77.53409	-1099.08569	75.50704	52.43182	-1050.79126	254.37321	82.06017	-1098.04456	-124.08079	629.17847	-832.6629	-146.22293	505.02618	-855.36542	-237.55945	252.64813	-870.44263	-271.99634	70.7053	-926.96222	-312.50604	49.83068	-973.88843	-119.7598	30.17331	-920.52582	-112.6422	1696.37573	-977.81683	NaN	NaN	NaN	NaN	NaN	NaN	NaN	NaN	NaN	NaN	NaN	NaN	NaN	NaN	NaN
155	1.54	-2.16117	1662.97339	-1032.43823	-10.80914	1645.73389	-901.56116	-133.06004	1605.22205	-1044.74731	-140.25438	1593.32043	-916.09473	-136.41132	1448.38708	-987.19952	-180.26302	1120.64575	-981.85608	-28.52847	1367.85315	-990.10065	5.64422	1190.7467	-998.00488	-211.02834	1279.34167	-904.39307	-87.72852	1402.91736	-1150.26721	-117.58368	1204.54749	-1225.71191	-136.7524	1094.3645	-1241.60254	-122.4844	945.65302	-1271.25	-64.90815	827.35486	-1236.63232	-127.30927	826.51477	-1272.15173	-88.4235	744.51465	-1278.5885	-66.56855	1401.25476	-827.50232	-93.56957	1201.42908	-739.14038	-77.84704	1080.51172	-726.96777	-54.96333	962.29657	-710.41833	9.6512	826.11597	-744.23492	-41.80005	825.09998	-701.16144	-0.7134	751.44153	-700.27496	-4.03011	957.0946	-1089.67383	-13.58236	956.78918	-870.47314	-162.93497	987.39856	-1070.35864	-164.09587	991.98572	-900.8717	-21.44395	649.08057	-1161.58228	25.93091	497.3381	-1132.48926	61.55502	243.38359	-1134.73889	114.76296	77.29583	-1099.76074	82.46085	51.94167	-1051.70239	261.36349	82.19672	-1097.72253	-119.4989	628.60938	-833.35242	-141.66	504.38797	-855.93567	-235.50639	252.80629	-870.92395	-271.71017	71.18765	-927.21759	-312.17148	50.45073	-974.20593	-119.65285	30.11032	-920.53461	-107.21306	1695.72314	-978.92114	NaN	NaN	NaN	NaN	NaN	NaN	NaN	NaN	NaN	NaN	NaN	NaN	NaN	NaN	NaN
156	1.55	3.26391	1662.42773	-1033.5249	-5.21471	1645.29456	-902.70398	-127.36699	1604.45642	-1045.86145	-134.50424	1592.65405	-917.23682	-130.53552	1447.83667	-988.24677	-174.01878	1119.94336	-982.75494	-22.52695	1367.30652	-991.01099	11.70461	1190.12036	-998.69684	-205.35513	1278.75403	-905.40082	-81.56647	1402.20667	-1151.27478	-112.49516	1204.073	-1226.55347	-132.33231	1093.92212	-1242.02527	-119.73799	945.0202	-1271.49292	-62.33102	826.52338	-1236.73096	-125.29769	825.93433	-1272.09802	-87.18446	743.53528	-1278.57715	-60.68797	1400.76416	-828.43311	-87.99966	1200.96741	-740.04089	-72.35891	1080.00964	-727.88324	-49.66349	961.76917	-711.26691	14.81842	825.54333	-745.08649	-36.68817	824.60431	-702.00458	4.3279	750.87555	-701.13916	2.37938	956.58521	-1090.25415	-8.07644	956.00946	-871.00006	-156.58627	986.83191	-1071.28015	-158.24733	991.30927	-901.86572	-16.25805	648.48218	-1161.6875	31.65943	496.76556	-1133.00415	68.06768	242.8945	-1135.57507	121.38668	76.84539	-1100.35999	88.8216	51.26843	-1052.52161	268.0914	82.21086	-1097.33276	-114.76653	628.12628	-834.0766	-137.2285	503.82855	-856.43353	-233.41353	253.06618	-871.37866	-271.35635	71.71028	-927.47076	-311.85651	51.18843	-974.4671	-119.51946	30.11301	-920.52332	-101.70906	1695.06042	-980.04266	NaN	NaN	NaN	NaN	NaN	NaN	NaN	NaN	NaN	NaN	NaN	NaN	NaN	NaN	NaN
157	1.56	8.87905	1661.90015	-1034.76733	0.46683	1644.87585	-903.86499	-121.60634	1603.73499	-1047.02319	-128.77829	1591.96204	-918.3653	-124.55027	1447.2019	-989.31335	-167.95543	1119.52832	-983.73315	-16.45363	1366.71472	-991.97156	17.79673	1189.55237	-999.43256	-199.3217	1278.26184	-906.44025	-75.39022	1401.4856	-1152.30261	-107.04514	1203.48926	-1226.89746	-127.9864	1093.5531	-1242.23242	-116.48299	944.42993	-1271.64282	-59.62848	825.65479	-1237.00635	-122.83028	825.31073	-1271.95911	-85.33617	742.6347	-1278.35193	-54.71653	1400.2948	-829.4342	-82.39902	1200.4845	-741.02118	-66.89902	1079.54883	-728.81335	-44.35384	961.2702	-712.24481	20.06008	824.99896	-746.02209	-31.46439	824.12231	-703.00409	9.37868	750.30688	-702.07434	8.8905	956.08917	-1090.78992	-2.45572	955.33667	-871.62372	-150.21596	986.28387	-1072.33362	-152.41234	990.70709	-902.99304	-9.28872	648.02911	-1163.15833	37.18463	496.0199	-1133.61609	74.21716	242.17827	-1136.41223	127.50399	76.15192	-1101.0531	94.54269	50.46562	-1053.49927	274.18121	81.82887	-1096.74231	-109.96944	627.62451	-834.7121	-132.87749	503.43515	-856.98505	-231.21065	253.34221	-871.68414	-270.99219	72.31653	-927.69476	-311.57874	52.17239	-974.75189	-119.42432	30.10148	-920.54077	-96.08561	1694.39587	-981.25775	NaN	NaN	NaN	NaN	NaN	NaN	NaN	NaN	NaN	NaN	NaN	NaN	NaN	NaN	NaN
